# xmcd
#
# Track frame offsets: 
#        150
#        21584
#        50500
#        81283
#        100761
#        120295
#        146060
#        163761
#        199311
#        215323
#        239911
#        254985
#
# Disc length: 3622 seconds
#
# Revision: 0
# Processed by: cddbd v1.5.2PL0 Copyright (c) Steve Scherf et al.
# Submitted via: ExactAudioCopy v1.0b4
#
DISCID=b90e240c
DTITLE=Barry Levenson - The Visit
DYEAR=2015
DGENRE=Blues
TTITLE0=I Wonder Why
TTITLE1=Ice Cold Kiss
TTITLE2=The Visit
TTITLE3=Steel City
TTITLE4=Magic Groove
TTITLE5=This Time I'm Gone For Good (Feat. Billy Price)
TTITLE6=I Might be Crazy
TTITLE7=Last Train to Nowhere
TTITLE8=Talkin to Myself
TTITLE9=Shadows at Midnight
TTITLE10=Flipside
TTITLE11=You're Gonna Need Me (Feat. Billy Price)
EXTD=
EXTT0=
EXTT1=
EXTT2=
EXTT3=
EXTT4=
EXTT5=
EXTT6=
EXTT7=
EXTT8=
EXTT9=
EXTT10=
EXTT11=
PLAYORDER=
